<?xml version="1.0" encoding="utf-8"?>
<!-- Generator: Adobe Illustrator 16.0.0, SVG Export Plug-In . SVG Version: 6.00 Build 0)  -->
<!DOCTYPE svg PUBLIC "-//W3C//DTD SVG 1.1//EN" "http://www.w3.org/Graphics/SVG/1.1/DTD/svg11.dtd">
<svg version="1.1" xmlns="http://www.w3.org/2000/svg" xmlns:xlink="http://www.w3.org/1999/xlink" x="0px" y="0px"
	 width="259.667px" height="255.333px" viewBox="0 0 259.667 255.333" enable-background="new 0 0 259.667 255.333"
	 xml:space="preserve">
<g id="Layer_3">
	<g>
		<ellipse fill="#FFFFFF" cx="129.834" cy="127.667" rx="129.834" ry="127.667"/>
	</g>
</g>
<g id="Layer_1">
	<g id="XMLID_1_">
		<g>
			<path fill="#84CC16" d="M227.874,84.32c-0.21,0.48-0.42,0.96-0.62,1.45c-10.26-3.08-20.53-6.16-30.79-9.23
				c-1.11-0.33-2.24-0.65-3.38-0.83c-4.29-0.66-7.04-2.46-6.54-7.48c0.16-1.44-0.84-3-1.32-4.5c-1.26,0.89-3.08,1.49-3.68,2.7
				c-4.51,9.07-12.13,4.3-18.46,4.03c-7.79-0.32-15.5-1.95-23.29-2.38c-3.66-0.2-5.38-1.68-6.59-4.72
				c-1.21-3.03-2.62-5.98-3.95-8.96c-0.53-0.09-1.04-0.17-1.58-0.26c-1.21,3.04-2.66,6-3.57,9.13c-0.98,3.38-2.76,4.48-6.38,4.71
				c-10.77,0.69-21.55,1.73-32.25,3.19c-3.94,0.55-6.28-0.4-8.22-3.64c-0.96-1.63-2.38-2.99-4.63-5.74
				c-0.4,3.77-0.34,6.05-0.97,8.12c-0.5,1.66-1.52,4.04-2.82,4.44c-12.14,3.75-24.39,7.14-36.62,10.64
				c-0.14-0.28-0.29-0.56-0.42-0.84c5.68-2.95,11.33-6.01,17.09-8.81c3.74-1.81,7.57-3.52,11.52-4.76c8.38-2.6,7.64-2.71,7.82-11.34
				c0.07-2.63,0.28-5.25,1.5-8.39c2.4,3.17,4.9,6.27,7.17,9.53c2.06,2.95,4.26,3.6,8.01,2.95c10.31-1.77,20.74-2.91,31.18-3.9
				c3.3-0.32,5.04-1.24,6.01-4.56c1.53-5.22,3.59-10.29,6-17.03c2.16,5.99,4.13,10.58,5.45,15.35c1.17,4.26,3.12,5.99,7.87,6.37
				c10.25,0.82,20.42,2.58,30.59,4.22c3.53,0.57,6.08-0.03,8.14-3.11c2.37-3.53,5.04-6.86,8.36-11.34
				c0.33,5.26,0.74,9.17,0.75,13.09c0,4.51,2.71,6.09,6.43,7.64C206.513,74.58,217.164,79.54,227.874,84.32z"/>
			<path fill="#84CC16" d="M204.643,86.17c-0.09,0.38-0.1,0.65-0.149,0.67c-8.75,1.92-10.21,7.83-9.891,15.88
				c0.54,12.97,0.23,25.99-0.149,38.97c-0.16,5.3,2.76,8.81,5.61,12.37c2.149,2.681,2.029,4.931,0.689,7.761
				c-4.36,9.189-10.36,16.92-18.71,22.93c-16.34,11.77-32.58,23.69-48.65,35.82c-3.89,2.93-6.35,2.649-10.18-0.271
				c-16.51-12.63-33.38-24.819-50.07-37.24c-7.35-5.479-12.67-12.68-16.69-20.869c-1.47-2.98-2-5.75,0.85-8.521
				c3.93-3.79,4.99-8.56,4.85-14.07c-0.34-13.65-0.42-27.33,0.02-40.98c0.19-5.69-1.3-9.24-6.92-10.72
				c-0.91-0.23-1.71-0.8-3.71-1.75c5.18,0,9.11,0.16,13.02-0.05c3.64-0.2,4.56,1.54,4.52,4.8c-0.1,10.49-0.03,20.98-0.03,31.47
				c0.01,10.33,0.17,20.65-0.02,30.97c-0.24,12.3,5.51,21.37,14.97,28.36c13.39,9.87,26.91,19.59,40.55,29.1
				c1.66,1.15,5.21,1.74,6.58,0.76c14.87-10.67,29.62-21.52,44.09-32.72c8.99-6.96,12.771-16.43,12.521-28.01
				c-0.45-19.48,0-38.98-0.21-58.47c-0.061-4.71,1.229-6.75,6.18-6.26C197.303,86.45,200.963,86.17,204.643,86.17z"/>
			<path fill="#84CC16" d="M179.853,104.47c-0.27,0.14-0.56,0.27-0.85,0.4c-0.74-0.8-1.67-1.49-2.17-2.42
				c-1.88-3.45-4.5-3.86-8-2.61c-4.46,1.58-9.04,2.79-14.25,3.12c3-4.33,5.89-8.75,9.04-12.97c2.25-3,1.35-4.41-1.37-6.79
				c-6.34-5.54-12.74-4.74-19.37-1.42c-1.05,0.53-2.069,2.81-1.8,3.98c1.33,5.76,3.09,11.42,5.06,18.39
				c-5.42-4.26-9.88-7.65-14.189-11.22c-2.44-2.02-4.48-2.23-7.03-0.1c-4.26,3.57-8.76,6.86-13.92,9.68
				c1.37-4.54,2.66-9.12,4.13-13.63c1.8-5.48,1.08-6.25-4.03-8.52c-7.25-3.23-12.55,0.13-17.6,4.33c-0.94,0.78-1.05,3.68-0.37,5.02
				c1.63,3.24,3.97,6.12,5.97,9.18c0.89,1.33,1.64,2.74,2.44,4.11c-0.24,0.4-0.46,0.8-0.71,1.2c-3.87-1.12-7.88-1.89-11.56-3.43
				c-4.48-1.88-7.63-1.38-9.62,3.31c-0.23,0.54-0.79,0.93-2.08,1.04c0.76-2.97,1.22-6.09,2.47-8.85c0.44-0.99,2.91-1.69,4.3-1.48
				c2.48,0.38,4.85,1.54,7.25,2.38c0.37-0.43,0.75-0.86,1.13-1.29c-2.18-3.5-4.38-7-6.97-11.17c5.39-3.22,10.3-7.15,15.91-9.11
				c3.3-1.15,7.75,0.62,11.59,1.49c8.45,1.93,8.41,2.03,6.01,10.31c-0.35,1.21-0.71,2.42-0.16,4.59c1.81-1.13,3.85-2,5.35-3.44
				c2.67-2.57,4.92-2.84,7.67-0.12c1.46,1.44,3.41,2.37,6.47,4.43c-0.66-3.49-0.97-5.5-1.45-7.47c-0.479-2.05-1.1-4.07-1.64-6.05
				c17.42-6.19,19.17-5.94,35.66,5.19c-2.16,3.67-4.37,7.38-6.57,11.1c0.28,0.37,0.55,0.75,0.82,1.13c3.79-1.04,7.58-2.08,11.6-3.19
				C178.064,97.6,178.954,101.03,179.853,104.47z"/>
			<path fill="#84CC16" d="M141.393,118.77c-0.81,3.68-1.54,7.31-2.409,10.9c-2.19,8.99-4.65,17.91-6.631,26.96
				c-0.97,4.39-3.75,4.021-6.76,4.09c-3.36,0.08-4.07-2.29-4.74-5.02c-1.89-7.87-3.87-15.72-5.87-23.57
				c-0.18-0.71-0.65-1.33-1.52-3.07c-1.91,7.4-3.53,13.71-5.14,20.03c-0.53,2.08-1.21,4.13-1.52,6.25c-0.6,4.19-2.56,5.74-6.66,5.69
				c-4.2-0.061-5.15-2.49-5.98-6.03c-2.6-11.11-5.44-22.17-8.15-33.25c-0.22-0.92-0.26-1.9-0.38-2.83c7.35-1.91,8.09-1.34,9.49,6.03
				c1.58,8.24,3.37,16.45,6.16,24.95c1.03-3.16,2.19-6.28,3.06-9.49c1.68-6.22,3.32-12.47,4.71-18.77c0.72-3.33,2.69-3.5,5.23-3.46
				c2.68,0.04,4.89,0.22,5.58,3.77c1.31,6.81,2.83,13.58,4.39,20.34c0.57,2.46,1.49,4.82,2.26,7.24c0.49-0.021,0.98-0.03,1.46-0.04
				c1.62-8.17,3.34-16.31,4.82-24.51C134.013,118.23,134.343,117.83,141.393,118.77z"/>
		</g>
		<g>
		</g>
	</g>
</g>
<g id="Layer_2">
	<path fill="#84CC16" d="M147,119.222l-1.333,7.112c9.938,1.322,17.727,5.118,16.933,13.824c-0.875,9.592-9.11,14.012-15.875,13.467
		c-4.022-0.324-5.889-0.227-8.5-1.25l-2.217,7.171c3.193,1.1,6.705,1.647,10.385,1.533c13.893-0.433,23.578-7.263,24.5-21.821
		C171.792,125.059,159.334,120.217,147,119.222z"/>
</g>
</svg>
